<svg width="124" height="32" viewBox="0 0 124 32" fill="none" xmlns="http://www.w3.org/2000/svg">
<circle cx="62" cy="16" r="16" fill="#767676"/>
<rect width="20" height="20" transform="translate(51 6)" fill="#767676"/>
<path d="M66 7.66669H63.5C62.395 7.66669 61.3352 8.10567 60.5538 8.88708C59.7724 9.66848 59.3334 10.7283 59.3334 11.8334V14.3334H56.8334V17.6667H59.3334V24.3334H62.6667V17.6667H65.1667L66 14.3334H62.6667V11.8334C62.6667 11.6123 62.7545 11.4004 62.9108 11.2441C63.0671 11.0878 63.279 11 63.5 11H66V7.66669Z" fill="#F2F2F2"/>
<circle cx="108" cy="16" r="16" fill="#767676"/>
<path fill-rule="evenodd" clip-rule="evenodd" d="M116.199 10.2994C116.483 10.5921 116.684 10.9544 116.783 11.3499C117.048 12.8155 117.176 14.3024 117.167 15.7916C117.172 17.2585 117.044 18.7229 116.783 20.1666C116.684 20.5621 116.483 20.9244 116.199 21.2171C115.915 21.5097 115.559 21.7223 115.167 21.8333C113.733 22.2166 108 22.2166 108 22.2166C108 22.2166 102.267 22.2166 100.833 21.8333C100.449 21.7281 100.098 21.5256 99.8151 21.2453C99.532 20.965 99.3258 20.6165 99.2167 20.2333C98.9523 18.7677 98.824 17.2808 98.8334 15.7916C98.8261 14.3135 98.9544 12.8379 99.2167 11.3833C99.3157 10.9878 99.5173 10.6254 99.8012 10.3328C100.085 10.0401 100.441 9.82757 100.833 9.71659C102.267 9.33325 108 9.33325 108 9.33325C108 9.33325 113.733 9.33325 115.167 9.68325C115.559 9.79424 115.915 10.0068 116.199 10.2994ZM110.917 15.7917L106.125 18.5167V13.0667L110.917 15.7917Z" fill="#F2F2F2"/>
<circle cx="16" cy="16" r="15.5" fill="#767676" stroke="#767676"/>
<g clip-path="url(#clip0_2_1266)">
<path d="M20.1666 7.66675H11.8333C9.53211 7.66675 7.66663 9.53223 7.66663 11.8334V20.1667C7.66663 22.4679 9.53211 24.3334 11.8333 24.3334H20.1666C22.4678 24.3334 24.3333 22.4679 24.3333 20.1667V11.8334C24.3333 9.53223 22.4678 7.66675 20.1666 7.66675Z" stroke="#F2F2F2" stroke-width="1.5" stroke-linecap="round" stroke-linejoin="round"/>
<path d="M19.3334 15.475C19.4362 16.1685 19.3178 16.8769 18.9948 17.4992C18.6719 18.1215 18.161 18.6262 17.5347 18.9414C16.9085 19.2566 16.1987 19.3663 15.5065 19.2549C14.8143 19.1436 14.1748 18.8167 13.6791 18.321C13.1833 17.8252 12.8565 17.1857 12.7451 16.4935C12.6337 15.8013 12.7434 15.0916 13.0586 14.4653C13.3739 13.8391 13.8785 13.3281 14.5009 13.0052C15.1232 12.6823 15.8315 12.5638 16.525 12.6667C17.2325 12.7716 17.8874 13.1012 18.3931 13.6069C18.8988 14.1126 19.2285 14.7676 19.3334 15.475Z" stroke="#F2F2F2" stroke-width="1.5" stroke-linecap="round" stroke-linejoin="round"/>
<path d="M20.5834 11.4167H20.5917" stroke="#F2F2F2" stroke-width="1.5" stroke-linecap="round" stroke-linejoin="round"/>
</g>
<defs>
<clipPath id="clip0_2_1266">
<rect width="20" height="20" fill="white" transform="translate(6 6)"/>
</clipPath>
</defs>
</svg>
