<svg width="46" height="50" viewBox="0 0 46 50" fill="none" xmlns="http://www.w3.org/2000/svg">
<path d="M11.5059 39.848H9.90988V37.136H8.92588V43.628H9.90988V40.676H11.5059V39.848ZM7.32988 43.1L7.79788 42.332C6.20188 41.816 5.19388 40.544 5.19388 39.14V38.72H7.56988V37.928H1.79788V38.72H4.20988V39.14C4.20988 40.712 3.14188 42.068 1.50988 42.644L2.01388 43.424C3.30988 42.956 4.25788 42.032 4.72588 40.784C5.19388 41.852 6.08188 42.704 7.32988 43.1ZM6.48988 43.904C4.28188 43.904 2.93788 44.636 2.93788 45.884C2.93788 47.144 4.28188 47.876 6.48988 47.876C8.66188 47.876 10.0299 47.144 10.0299 45.884C10.0299 44.636 8.66188 43.904 6.48988 43.904ZM6.48988 47.096C4.84588 47.096 3.92188 46.652 3.92188 45.884C3.92188 45.116 4.84588 44.684 6.48988 44.684C8.08588 44.684 9.04588 45.116 9.04588 45.884C9.04588 46.652 8.08588 47.096 6.48988 47.096ZM22.6529 42.188V41.36H20.8769V37.136H19.8929V47.876H20.8769V42.188H22.6529ZM17.0729 38.036V40.88H14.0009V38.036H13.0289V45.296H18.0329V38.036H17.0729ZM17.0729 41.66V44.492H14.0009V41.66H17.0729ZM33.38 43.256V42.452H31.784C32.084 40.904 32.084 39.764 32.084 38.756V37.82H24.86V38.612H31.124V38.756C31.124 39.764 31.124 40.904 30.788 42.452H23.648V43.256H27.992V47.9H28.988V43.256H33.38ZM43.4951 37.124H42.5111V47.876H43.4951V37.124ZM36.3311 44.264V38.168H35.3471V45.104H36.2351C37.9631 45.104 39.6311 44.984 41.5151 44.6L41.4071 43.76C39.6191 44.132 37.9751 44.264 36.3311 44.264Z" fill="#767676"/>
<path d="M17.8889 28.4445C18.6253 28.4445 19.2222 27.8475 19.2222 27.1112C19.2222 26.3748 18.6253 25.7778 17.8889 25.7778C17.1525 25.7778 16.5555 26.3748 16.5555 27.1112C16.5555 27.8475 17.1525 28.4445 17.8889 28.4445Z" fill="black" stroke="black" stroke-width="2" stroke-linecap="round" stroke-linejoin="round"/>
<path d="M30.3333 28.4445C31.0697 28.4445 31.6667 27.8475 31.6667 27.1112C31.6667 26.3748 31.0697 25.7778 30.3333 25.7778C29.597 25.7778 29 26.3748 29 27.1112C29 27.8475 29.597 28.4445 30.3333 28.4445Z" fill="black" stroke="black" stroke-width="2" stroke-linecap="round" stroke-linejoin="round"/>
<path d="M7.66663 2.66675H12.5151L15.7636 18.536C15.8744 19.0816 16.178 19.5718 16.6212 19.9206C17.0644 20.2694 17.619 20.4548 18.1878 20.4441H29.9697C30.5385 20.4548 31.0931 20.2694 31.5363 19.9206C31.9795 19.5718 32.2831 19.0816 32.3939 18.536L34.3333 8.59253H13.7272" stroke="black" stroke-width="2" stroke-linecap="round" stroke-linejoin="round"/>
</svg>
